<svg width="44" height="44" viewBox="0 0 44 44" fill="none" xmlns="http://www.w3.org/2000/svg">
<path d="M9.16667 5.5C7.1445 5.5 5.5 7.1445 5.5 9.16667V34.8333C5.5 36.8555 7.1445 38.5 9.16667 38.5H21.3053H26.4258H34.8333C36.8555 38.5 38.5 36.8555 38.5 34.8333V9.16667C38.5 7.1445 36.8555 5.5 34.8333 5.5H9.16667ZM9.16667 9.16667H34.8333L34.8369 34.8333H26.4258V27.5645H30.762L31.4066 22.5693H26.4544V19.3861C26.4544 17.9414 26.857 16.9655 28.9287 16.9655H31.5462V12.5075C30.2721 12.3773 28.9928 12.314 27.7113 12.3177C23.9089 12.3177 21.3053 14.6384 21.3053 18.8991V22.5765H17.0085V27.5716H21.3053V34.8333H9.16667V9.16667Z" fill="black"/>
</svg>
