<svg width="40" height="40" viewBox="0 0 40 40" fill="none" xmlns="http://www.w3.org/2000/svg">
<path d="M13.3333 5C8.73833 5 5 8.73833 5 13.3333V26.6667C5 31.2617 8.73833 35 13.3333 35H26.6667C31.2617 35 35 31.2617 35 26.6667V13.3333C35 8.73833 31.2617 5 26.6667 5H13.3333ZM13.3333 8.33333H26.6667C29.4233 8.33333 31.6667 10.5767 31.6667 13.3333V26.6667C31.6667 29.4233 29.4233 31.6667 26.6667 31.6667H13.3333C10.5767 31.6667 8.33333 29.4233 8.33333 26.6667V13.3333C8.33333 10.5767 10.5767 8.33333 13.3333 8.33333ZM28.3333 10C27.8913 10 27.4674 10.1756 27.1548 10.4882C26.8423 10.8007 26.6667 11.2246 26.6667 11.6667C26.6667 12.1087 26.8423 12.5326 27.1548 12.8452C27.4674 13.1577 27.8913 13.3333 28.3333 13.3333C28.7754 13.3333 29.1993 13.1577 29.5118 12.8452C29.8244 12.5326 30 12.1087 30 11.6667C30 11.2246 29.8244 10.8007 29.5118 10.4882C29.1993 10.1756 28.7754 10 28.3333 10ZM20 11.6667C15.405 11.6667 11.6667 15.405 11.6667 20C11.6667 24.595 15.405 28.3333 20 28.3333C24.595 28.3333 28.3333 24.595 28.3333 20C28.3333 15.405 24.595 11.6667 20 11.6667ZM20 15C22.7567 15 25 17.2433 25 20C25 22.7567 22.7567 25 20 25C17.2433 25 15 22.7567 15 20C15 17.2433 17.2433 15 20 15Z" fill="black"/>
</svg>
