<svg width="75" height="75" viewBox="0 0 75 75" fill="none" xmlns="http://www.w3.org/2000/svg">
<path d="M34.2598 3.05274C29.4887 2.92274 24.4883 9.28653 21.7939 19.0811L13.3271 21.8408C12.7766 22.0208 12.3768 22.4997 12.3018 23.0742L7.13378 63.29C7.03328 64.0775 7.56225 64.8071 8.34375 64.9541L44.4463 71.8242L47.2324 10.7959L45.5654 11.3379C44.5709 7.67189 42.7108 5.36627 40.2598 4.84277C39.5173 4.68077 38.7995 4.71415 38.1035 4.88965C37.268 4.00765 36.3055 3.39956 35.209 3.16406C34.8937 3.09675 34.5778 3.0614 34.2598 3.05274ZM34.0811 6.05567C34.2538 6.05164 34.4234 6.06567 34.585 6.09961C34.8415 6.15511 35.0891 6.26888 35.3291 6.42188C32.3516 8.96738 30.0751 13.7978 28.8721 16.7783L25.2715 17.9502C27.724 10.4127 31.49 6.11609 34.0811 6.05567ZM39.9844 7.90137C41.1364 8.37687 42.1073 9.9251 42.7148 12.2666L41.1797 12.7676C40.9397 10.9106 40.5439 9.26637 39.9844 7.90137ZM37.1338 8.87695C37.6813 10.1505 38.0797 11.7984 38.2822 13.7109L32.6865 15.5332C34.206 12.3082 35.7718 10.095 37.1338 8.87695ZM50.2236 11.0947L47.4551 71.71L66.3252 67.5352C67.0932 67.3657 67.5978 66.6319 67.4853 65.8564C65.0838 49.2109 60.5249 17.5518 60.4424 16.9248C60.4259 16.7748 60.3881 16.6278 60.3281 16.4883C60.0341 15.8133 59.5025 15.3295 58.793 15.085C58.655 15.0385 58.4902 15.0119 58.3447 15.0059C58.0117 14.9924 55.0534 14.7621 53.7949 14.6631C52.7659 13.6116 50.7909 11.5992 50.2764 11.1357C50.2599 11.1192 50.2401 11.1097 50.2236 11.0947ZM34.0781 27.0352C37.1741 27.0352 38.8211 28.0083 38.8916 28.0518C39.1871 28.2303 39.3204 28.5919 39.2139 28.9219L36.9463 35.9121C36.8773 36.1251 36.7197 36.2954 36.5127 36.3779C36.3027 36.4649 36.069 36.4478 35.874 36.3428C35.8545 36.3323 33.9454 35.3086 31.7344 35.3086C29.0599 35.3086 28.6611 36.6767 28.6611 37.4912C28.6611 38.3747 29.8205 39.2503 31.166 40.2598C33.5465 42.0478 36.8057 44.4952 36.8057 49.4092C36.8057 55.5652 32.9733 59.8682 27.4863 59.8682C21.2463 59.8682 18.1041 55.9814 17.9736 55.8164C17.8221 55.6259 17.7728 55.3707 17.8418 55.1367L19.4355 49.7783C19.509 49.5338 19.7052 49.342 19.9512 49.2715C20.1957 49.2055 20.4623 49.2603 20.6543 49.4268C20.6843 49.4538 23.5901 51.9932 25.8926 51.9932C27.2321 51.9932 27.5859 50.9195 27.5859 50.3525C27.5859 48.8825 26.5104 47.987 25.1484 46.8545C23.2674 45.2915 20.9297 43.3455 20.9297 39.123C20.9297 33.3015 24.9879 27.0381 33.8994 27.0381C33.9594 27.0381 34.0181 27.0352 34.0781 27.0352Z" fill="black"/>
</svg>
