<svg width="40" height="40" viewBox="0 0 40 40" fill="none" xmlns="http://www.w3.org/2000/svg">
<path d="M20 6.66669C20 6.66669 9.57589 6.66663 6.97589 7.3633C5.54089 7.74663 4.41326 8.87593 4.02993 10.3093C3.33326 12.9093 3.33331 20 3.33331 20C3.33331 20 3.33326 27.0908 4.02993 29.6908C4.41326 31.1258 5.54256 32.2534 6.97589 32.6367C9.57589 33.3334 20 33.3334 20 33.3334C20 33.3334 30.4241 33.3334 33.0241 32.6367C34.4574 32.2534 35.5867 31.1241 35.97 29.6908C36.6667 27.0908 36.6666 20 36.6666 20C36.6666 20 36.6667 12.9093 35.97 10.3093C35.5867 8.87593 34.4574 7.74663 33.0241 7.3633C30.4241 6.66663 20 6.66669 20 6.66669ZM20 10C24.8033 10 30.8181 10.2227 32.1614 10.5827C32.4431 10.6577 32.674 10.8886 32.7506 11.1719C33.1523 12.6686 33.3333 17.2367 33.3333 20C33.3333 22.7634 33.1523 27.3298 32.7506 28.8281C32.6756 29.1098 32.4448 29.3407 32.1614 29.4173C30.8198 29.7773 24.8033 30 20 30C15.1983 30 9.18352 29.7773 7.83852 29.4173C7.55685 29.3423 7.326 29.1115 7.24933 28.8281C6.84766 27.3315 6.66665 22.7634 6.66665 20C6.66665 17.2367 6.84766 12.6686 7.24933 11.1686C7.32433 10.8886 7.55519 10.6577 7.83852 10.5827C9.18019 10.2227 15.1966 10 20 10ZM16.6666 14.2253V25.7748L26.6666 20L16.6666 14.2253Z" fill="black"/>
</svg>
